HIERARCHY
ROOT mixamorig:Hips
{
	OFFSET 0.000000 201.639420 0.000000
	CHANNELS 6 Xposition Yposition Zposition Xrotation Yrotation Zrotation
	JOINT mixamorig:Spine
	{
		OFFSET 0.006200 19.524994 -2.481800
		CHANNELS 3 Xrotation Yrotation Zrotation
		JOINT mixamorig:Spine1
		{
			OFFSET -0.000900 22.835007 -2.825400
			CHANNELS 3 Xrotation Yrotation Zrotation
			JOINT mixamorig:Spine2
			{
				OFFSET -0.020600 26.552490 -3.193300
				CHANNELS 3 Xrotation Yrotation Zrotation
				JOINT mixamorig:Neck
				{
					OFFSET -0.060000 30.701813 1.352200
					CHANNELS 3 Xrotation Yrotation Zrotation
					JOINT mixamorig:Head
					{
						OFFSET -0.087200 22.547607 3.670900
						CHANNELS 3 Xrotation Yrotation Zrotation
						JOINT mixamorig:HeadTop_End
						{
							OFFSET -0.830600 40.355194 7.893500
							CHANNELS 3 Xrotation Yrotation Zrotation
							End Site
							{
								OFFSET 0.000000 30.592346 0.000000
							}
						}
						JOINT mixamorig:RightEye
						{
							OFFSET -6.302100 18.118591 16.197100
							CHANNELS 3 Xrotation Yrotation Zrotation
							End Site
							{
								OFFSET 0.000000 30.592346 0.000000
							}
						}
						JOINT mixamorig:LeftEye
						{
							OFFSET 6.741500 18.382690 16.401899
							CHANNELS 3 Xrotation Yrotation Zrotation
							End Site
							{
								OFFSET 0.000000 30.592346 0.000000
							}
						}
					}
				}
				JOINT mixamorig:LeftShoulder
				{
					OFFSET 11.924900 18.230499 1.425400
					CHANNELS 3 Xrotation Yrotation Zrotation
					JOINT mixamorig:LeftArm
					{
						OFFSET 25.435989 -0.697632 -5.229300
						CHANNELS 3 Xrotation Yrotation Zrotation
						JOINT mixamorig:LeftForeArm
						{
							OFFSET 54.684776 0.000000 0.000000
							CHANNELS 3 Xrotation Yrotation Zrotation
							JOINT mixamorig:LeftHand
							{
								OFFSET 55.098175 0.000000 0.000000
								CHANNELS 3 Xrotation Yrotation Zrotation
								JOINT mixamorig:LeftHandMiddle1
								{
									OFFSET 23.369751 0.000000 0.000000
									CHANNELS 3 Xrotation Yrotation Zrotation
									JOINT mixamorig:LeftHandMiddle2
									{
										OFFSET 6.378677 0.000000 0.000000
										CHANNELS 3 Xrotation Yrotation Zrotation
										JOINT mixamorig:LeftHandMiddle3
										{
											OFFSET 6.148331 0.000000 0.000000
											CHANNELS 3 Xrotation Yrotation Zrotation
											JOINT mixamorig:LeftHandMiddle4
											{
												OFFSET 6.582504 0.000000 0.000000
												CHANNELS 3 Xrotation Yrotation Zrotation
												End Site
												{
													OFFSET -1.168900 6.395691 1.028606
												}
											}
										}
									}
								}
								JOINT mixamorig:LeftHandThumb1
								{
									OFFSET 7.235672 -3.848206 5.434273
									CHANNELS 3 Xrotation Yrotation Zrotation
									JOINT mixamorig:LeftHandThumb2
									{
										OFFSET 6.568451 -3.792297 3.792300
										CHANNELS 3 Xrotation Yrotation Zrotation
										JOINT mixamorig:LeftHandThumb3
										{
											OFFSET 6.063080 -3.500519 3.500518
											CHANNELS 3 Xrotation Yrotation Zrotation
											JOINT mixamorig:LeftHandThumb4
											{
												OFFSET 4.793182 -2.767334 2.767349
												CHANNELS 3 Xrotation Yrotation Zrotation
												End Site
												{
													OFFSET 0.101639 6.054260 1.275483
												}
											}
										}
									}
								}
								JOINT mixamorig:LeftHandIndex1
								{
									OFFSET 23.101074 -0.309540 4.992809
									CHANNELS 3 Xrotation Yrotation Zrotation
									JOINT mixamorig:LeftHandIndex2
									{
										OFFSET 6.226883 0.000000 0.000000
										CHANNELS 3 Xrotation Yrotation Zrotation
										JOINT mixamorig:LeftHandIndex3
										{
											OFFSET 6.094330 0.000000 0.000000
											CHANNELS 3 Xrotation Yrotation Zrotation
											JOINT mixamorig:LeftHandIndex4
											{
												OFFSET 5.482605 0.000000 0.000000
												CHANNELS 3 Xrotation Yrotation Zrotation
												End Site
												{
													OFFSET -1.427902 5.233032 0.797164
												}
											}
										}
									}
								}
								JOINT mixamorig:LeftHandRing1
								{
									OFFSET 22.299240 0.021149 -3.964172
									CHANNELS 3 Xrotation Yrotation Zrotation
									JOINT mixamorig:LeftHandRing2
									{
										OFFSET 6.321869 0.000000 0.000000
										CHANNELS 3 Xrotation Yrotation Zrotation
										JOINT mixamorig:LeftHandRing3
										{
											OFFSET 5.899796 0.000000 0.000000
											CHANNELS 3 Xrotation Yrotation Zrotation
											JOINT mixamorig:LeftHandRing4
											{
												OFFSET 6.517899 0.000000 0.000000
												CHANNELS 3 Xrotation Yrotation Zrotation
												End Site
												{
													OFFSET -1.637299 6.232208 0.980890
												}
											}
										}
									}
								}
								JOINT mixamorig:LeftHandPinky1
								{
									OFFSET 20.463791 -0.302338 -8.562233
									CHANNELS 3 Xrotation Yrotation Zrotation
									JOINT mixamorig:LeftHandPinky2
									{
										OFFSET 6.908646 0.000000 0.000000
										CHANNELS 3 Xrotation Yrotation Zrotation
										JOINT mixamorig:LeftHandPinky3
										{
											OFFSET 4.622849 0.000000 0.000000
											CHANNELS 3 Xrotation Yrotation Zrotation
											JOINT mixamorig:LeftHandPinky4
											{
												OFFSET 5.216080 0.000000 0.000000
												CHANNELS 3 Xrotation Yrotation Zrotation
												End Site
												{
													OFFSET -0.606308 5.116241 0.814926
												}
											}
										}
									}
								}
							}
						}
					}
				}
				JOINT mixamorig:RightShoulder
				{
					OFFSET -12.001300 18.284088 1.348900
					CHANNELS 3 Xrotation Yrotation Zrotation
					JOINT mixamorig:RightArm
					{
						OFFSET -25.308500 -0.751312 -5.164599
						CHANNELS 3 Xrotation Yrotation Zrotation
						JOINT mixamorig:RightForeArm
						{
							OFFSET -54.684429 0.000000 0.000000
							CHANNELS 3 Xrotation Yrotation Zrotation
							JOINT mixamorig:RightHand
							{
								OFFSET -55.150291 0.000000 0.000000
								CHANNELS 3 Xrotation Yrotation Zrotation
								JOINT mixamorig:RightHandMiddle1
								{
									OFFSET -23.317566 0.000000 0.000000
									CHANNELS 3 Xrotation Yrotation Zrotation
									JOINT mixamorig:RightHandMiddle2
									{
										OFFSET -6.378403 0.000000 0.000000
										CHANNELS 3 Xrotation Yrotation Zrotation
										JOINT mixamorig:RightHandMiddle3
										{
											OFFSET -6.148193 0.000000 0.000000
											CHANNELS 3 Xrotation Yrotation Zrotation
											JOINT mixamorig:RightHandMiddle4
											{
												OFFSET -6.583389 0.000000 0.000000
												CHANNELS 3 Xrotation Yrotation Zrotation
												End Site
												{
													OFFSET 1.171692 6.395905 1.029786
												}
											}
										}
									}
								}
								JOINT mixamorig:RightHandThumb1
								{
									OFFSET -7.190521 -3.860474 5.435846
									CHANNELS 3 Xrotation Yrotation Zrotation
									JOINT mixamorig:RightHandThumb2
									{
										OFFSET -6.567429 -3.791718 3.791708
										CHANNELS 3 Xrotation Yrotation Zrotation
										JOINT mixamorig:RightHandThumb3
										{
											OFFSET -6.062469 -3.500153 3.500166
											CHANNELS 3 Xrotation Yrotation Zrotation
											JOINT mixamorig:RightHandThumb4
											{
												OFFSET -4.792618 -2.767029 2.767022
												CHANNELS 3 Xrotation Yrotation Zrotation
												End Site
												{
													OFFSET -0.100327 6.053253 1.276754
												}
											}
										}
									}
								}
								JOINT mixamorig:RightHandIndex1
								{
									OFFSET -23.048981 -0.310791 4.992554
									CHANNELS 3 Xrotation Yrotation Zrotation
									JOINT mixamorig:RightHandIndex2
									{
										OFFSET -6.227539 0.000000 0.000000
										CHANNELS 3 Xrotation Yrotation Zrotation
										JOINT mixamorig:RightHandIndex3
										{
											OFFSET -6.095047 0.000000 0.000000
											CHANNELS 3 Xrotation Yrotation Zrotation
											JOINT mixamorig:RightHandIndex4
											{
												OFFSET -5.484772 0.000000 0.000000
												CHANNELS 3 Xrotation Yrotation Zrotation
												End Site
												{
													OFFSET 1.420593 5.237305 0.797056
												}
											}
										}
									}
								}
								JOINT mixamorig:RightHandRing1
								{
									OFFSET -22.246323 0.020569 -3.963762
									CHANNELS 3 Xrotation Yrotation Zrotation
									JOINT mixamorig:RightHandRing2
									{
										OFFSET -6.322128 0.000000 0.000000
										CHANNELS 3 Xrotation Yrotation Zrotation
										JOINT mixamorig:RightHandRing3
										{
											OFFSET -5.900024 0.000000 0.000000
											CHANNELS 3 Xrotation Yrotation Zrotation
											JOINT mixamorig:RightHandRing4
											{
												OFFSET -6.518356 0.000000 0.000000
												CHANNELS 3 Xrotation Yrotation Zrotation
												End Site
												{
													OFFSET 1.636398 6.232697 0.982186
												}
											}
										}
									}
								}
								JOINT mixamorig:RightHandPinky1
								{
									OFFSET -20.411011 -0.303314 -8.561701
									CHANNELS 3 Xrotation Yrotation Zrotation
									JOINT mixamorig:RightHandPinky2
									{
										OFFSET -6.907349 0.000000 0.000000
										CHANNELS 3 Xrotation Yrotation Zrotation
										JOINT mixamorig:RightHandPinky3
										{
											OFFSET -4.623840 0.000000 0.000000
											CHANNELS 3 Xrotation Yrotation Zrotation
											JOINT mixamorig:RightHandPinky4
											{
												OFFSET -5.218353 0.000000 0.000000
												CHANNELS 3 Xrotation Yrotation Zrotation
												End Site
												{
													OFFSET 0.602097 5.118835 0.816273
												}
											}
										}
									}
								}
							}
						}
					}
				}
			}
		}
	}
	JOINT mixamorig:LeftUpLeg
	{
		OFFSET 18.168400 -13.561905 -0.039000
		CHANNELS 3 Xrotation Yrotation Zrotation
		JOINT mixamorig:LeftLeg
		{
			OFFSET 0.577358 -80.825211 -3.695000
			CHANNELS 3 Xrotation Yrotation Zrotation
			JOINT mixamorig:LeftFoot
			{
				OFFSET -0.577356 -83.370262 -6.520700
				CHANNELS 3 Xrotation Yrotation Zrotation
				JOINT mixamorig:LeftToeBase
				{
					OFFSET 0.750401 -20.798306 25.135401
					CHANNELS 3 Xrotation Yrotation Zrotation
					JOINT mixamorig:LeftToe_End
					{
						OFFSET -0.000500 0.001200 19.917799
						CHANNELS 3 Xrotation Yrotation Zrotation
						End Site
						{
							OFFSET 0.000000 19.917805 0.000000
						}
					}
				}
			}
		}
	}
	JOINT mixamorig:RightUpLeg
	{
		OFFSET -18.162500 -13.585098 -0.041000
		CHANNELS 3 Xrotation Yrotation Zrotation
		JOINT mixamorig:RightLeg
		{
			OFFSET -0.595024 -80.945297 -3.631900
			CHANNELS 3 Xrotation Yrotation Zrotation
			JOINT mixamorig:RightFoot
			{
				OFFSET 0.595024 -83.218193 -6.561200
				CHANNELS 3 Xrotation Yrotation Zrotation
				JOINT mixamorig:RightToeBase
				{
					OFFSET -0.753601 -20.807106 25.115000
					CHANNELS 3 Xrotation Yrotation Zrotation
					JOINT mixamorig:RightToe_End
					{
						OFFSET 0.000299 0.001700 19.918200
						CHANNELS 3 Xrotation Yrotation Zrotation
						End Site
						{
							OFFSET 0.000000 19.918203 0.000000
						}
					}
				}
			}
		}
	}
}
MOTION
Frames: 6
Frame Time: 0.033333
-51.998703 191.264526 299.282654 -10.975959 -41.553372 5.042566 17.862290 -6.050818 -5.538153 2.678231 -1.266281 -1.982838 2.688198 -1.281864 -1.945021 -10.458406 -2.324852 0.600886 2.182505 -22.899941 6.350128 -0.000000 0.000001 0.000000 -0.000000 0.000001 0.000000 -0.000000 0.000001 0.000000 3.031725 5.383295 -11.163051 -6.510371 -18.297435 -52.126457 0.000009 -2.644799 -0.000006 41.907220 -7.370074 -18.431197 0.362546 4.206369 -18.344203 0.474608 2.311792 -23.200247 0.474611 2.311790 -23.200226 -0.000002 -0.000001 -0.000001 -3.469770 3.607316 7.883192 9.703620 22.223530 2.891173 -5.879062 9.699142 15.674842 -0.000001 0.000002 0.000001 0.162358 3.429614 -10.498173 0.209645 1.554732 -15.358594 0.209651 1.554735 -15.358570 -0.000001 -0.000000 0.000001 0.689031 4.991717 -26.673260 0.865736 3.066789 -31.521436 0.865735 3.066778 -31.521439 -0.000001 -0.000003 -0.000001 0.902508 5.377881 -30.995357 1.110592 3.433623 -35.838149 1.110592 3.433636 -35.838153 0.000001 -0.000001 -0.000000 2.356335 9.506048 5.518563 -9.886714 4.192467 78.472979 0.000010 10.752196 -0.000002 0.943769 -0.076559 -7.667984 2.592854 -6.426546 62.973443 4.946639 -4.648200 93.567328 3.098016 -4.388966 70.420569 0.000000 0.000001 0.000000 -1.986158 -5.435665 -3.761566 8.766472 -20.697681 -3.062097 -5.504762 -5.510958 -14.718503 -0.000001 0.000002 0.000002 2.057129 -6.108258 55.293592 5.419330 -4.594484 99.429393 3.163285 -4.411569 71.271248 0.000002 0.000000 0.000000 2.855003 -6.549365 66.538596 4.919147 -4.649816 93.228203 2.921283 -4.322209 68.093919 -0.000001 -0.000000 -0.000003 1.542115 -5.696816 47.168194 2.898959 -4.313212 67.797332 2.788735 -4.266682 66.323910 0.000003 -0.000001 0.000000 -24.187568 1.149712 -1.345778 69.651025 8.391845 -4.457170 7.580054 4.158690 -5.719653 -6.909436 0.000006 -0.000015 -0.000002 -0.000002 -0.000002 -8.454990 0.012952 7.212893 30.052703 -2.281084 -2.290489 -9.944027 10.919682 -16.339503 -6.153691 0.000004 -0.000000 -0.000001 0.000001 0.000000 
-57.373703 193.520737 306.841156 -5.530619 -49.086421 9.068847 14.839904 -4.541638 -7.738245 1.878669 -0.537095 -2.476232 1.881071 -0.551205 -2.457642 -10.294609 -2.203402 0.623353 1.799225 -20.262347 5.030712 -0.000000 0.000000 -0.000000 -0.000000 0.000000 -0.000000 -0.000000 0.000000 -0.000000 3.193205 6.282306 -12.047580 -5.780343 -11.425271 -53.144240 -0.000006 -2.776217 -0.000006 46.705892 -3.031396 -23.106837 0.362545 4.206367 -18.344199 0.474603 2.311793 -23.200250 0.474608 2.311786 -23.200225 -0.000000 -0.000001 -0.000001 -3.469771 3.607316 7.883193 9.703622 22.223528 2.891176 -5.879059 9.699145 15.674845 -0.000002 0.000000 -0.000002 0.162358 3.429612 -10.498172 0.209648 1.554733 -15.358594 0.209650 1.554734 -15.358572 -0.000000 0.000004 -0.000005 0.689031 4.991714 -26.673258 0.865733 3.066786 -31.521436 0.865732 3.066777 -31.521439 0.000001 -0.000000 -0.000001 0.902511 5.377879 -30.995357 1.110592 3.433627 -35.838153 1.110597 3.433632 -35.838160 -0.000001 -0.000001 -0.000001 2.318915 9.926659 5.168655 -9.027998 4.346758 78.825410 0.000003 12.180989 0.000025 1.545767 -0.302777 -7.017400 2.592849 -6.426547 62.973443 4.946643 -4.648194 93.567328 3.098018 -4.388964 70.420575 -0.000003 -0.000001 -0.000002 -1.986162 -5.435663 -3.761567 8.766477 -20.697681 -3.062098 -5.504762 -5.510958 -14.718501 -0.000001 0.000001 0.000001 2.057129 -6.108259 55.293592 5.419330 -4.594482 99.429400 3.163285 -4.411568 71.271241 0.000003 -0.000000 0.000000 2.855001 -6.549364 66.538590 4.919145 -4.649820 93.228209 2.921283 -4.322209 68.093919 -0.000003 -0.000002 -0.000001 1.542109 -5.696817 47.168197 2.898961 -4.313212 67.797339 2.788736 -4.266680 66.323910 -0.000001 0.000000 0.000001 -31.014226 1.366269 -2.874317 61.013848 6.932169 -3.031207 3.284279 7.946236 -3.054999 -5.558439 0.000003 -0.000001 -0.000000 0.000000 -0.000000 -6.396951 0.741677 4.543924 25.761262 -1.968417 -1.679240 -10.416420 18.510134 -15.171414 -6.345305 0.000006 0.000001 -0.000000 0.000001 0.000000 
-63.309242 195.015182 314.364655 0.825776 -56.029626 14.338331 12.136045 -3.103280 -9.621986 1.206016 0.115658 -2.847352 1.199730 0.105571 -2.840744 -10.259373 -2.060625 0.654848 1.210142 -17.548909 3.925984 0.000001 -0.000001 0.000000 0.000001 -0.000001 0.000000 0.000001 -0.000001 0.000000 3.366471 7.295334 -12.781226 -3.167487 -6.074985 -53.840978 -0.000004 -4.119135 0.000007 45.885156 0.950837 -26.513305 0.362544 4.206368 -18.344198 0.474605 2.311795 -23.200247 0.474612 2.311788 -23.200228 -0.000002 -0.000000 -0.000000 -3.469772 3.607316 7.883191 9.703618 22.223535 2.891175 -5.879058 9.699141 15.674840 0.000002 -0.000000 0.000000 0.162352 3.429609 -10.498171 0.209647 1.554732 -15.358594 0.209649 1.554737 -15.358573 -0.000000 0.000000 0.000001 0.689030 4.991716 -26.673258 0.865734 3.066788 -31.521439 0.865737 3.066775 -31.521436 -0.000003 -0.000002 -0.000000 0.902508 5.377881 -30.995354 1.110592 3.433627 -35.838153 1.110592 3.433637 -35.838160 0.000002 -0.000000 0.000001 2.285930 10.324586 4.838693 -7.917119 4.309160 79.037720 0.000001 14.654022 0.000004 2.080998 -1.280374 -5.712674 2.592850 -6.426548 62.973443 4.946642 -4.648196 93.567322 3.098017 -4.388964 70.420575 -0.000004 0.000003 0.000001 -1.986159 -5.435664 -3.761568 8.766474 -20.697679 -3.062097 -5.504763 -5.510960 -14.718501 0.000004 0.000000 -0.000001 2.057130 -6.108260 55.293592 5.419329 -4.594484 99.429393 3.163288 -4.411570 71.271241 0.000003 -0.000000 0.000002 2.854995 -6.549365 66.538590 4.919143 -4.649817 93.228203 2.921280 -4.322208 68.093919 -0.000000 0.000000 -0.000001 1.542108 -5.696817 47.168197 2.898962 -4.313208 67.797339 2.788735 -4.266683 66.323917 0.000001 -0.000001 0.000001 -35.019333 1.720101 -2.747044 48.872725 5.494891 -1.378099 0.763626 8.232891 -1.467198 -4.784952 -0.000010 -0.000003 0.000000 -0.000003 0.000000 -3.911667 0.541913 1.507869 21.206079 -1.665937 -1.099864 -11.356478 25.463241 -13.035894 -6.904188 0.000024 -0.000003 -0.000000 0.000001 0.000000 
-69.523331 195.414505 321.983002 6.577732 -61.636010 19.204380 10.373186 -1.965617 -10.671285 0.838033 0.599661 -3.054281 0.824814 0.593101 -3.053214 -10.411009 -1.889736 0.607909 0.448757 -14.972838 2.945415 -0.000000 -0.000001 0.000000 -0.000000 -0.000001 0.000000 -0.000000 -0.000001 0.000000 3.491728 7.937046 -13.306966 0.462064 -2.615796 -54.890846 0.000002 -5.115968 -0.000000 41.385315 2.653412 -28.710772 0.362546 4.206369 -18.344199 0.474606 2.311787 -23.200250 0.474615 2.311787 -23.200228 0.000002 -0.000001 -0.000002 -3.469773 3.607316 7.883192 9.703623 22.223533 2.891174 -5.879065 9.699137 15.674844 0.000003 0.000003 0.000001 0.162356 3.429609 -10.498176 0.209645 1.554735 -15.358592 0.209649 1.554733 -15.358575 0.000001 0.000001 -0.000004 0.689032 4.991716 -26.673256 0.865728 3.066787 -31.521432 0.865735 3.066778 -31.521439 -0.000000 0.000001 0.000000 0.902507 5.377879 -30.995357 1.110592 3.433620 -35.838156 1.110593 3.433635 -35.838156 0.000003 0.000000 -0.000001 2.258976 10.675810 4.523817 -6.209576 4.107250 78.780058 -0.000006 18.739186 0.000011 2.131520 -3.205479 -4.237414 2.592849 -6.426548 62.973449 4.946643 -4.648199 93.567328 3.098021 -4.388964 70.420575 -0.000001 0.000001 -0.000002 -1.986158 -5.435663 -3.761569 8.766473 -20.697684 -3.062099 -5.504764 -5.510962 -14.718504 0.000001 0.000003 0.000002 2.057129 -6.108259 55.293592 5.419329 -4.594483 99.429400 3.163289 -4.411565 71.271248 0.000004 -0.000002 0.000003 2.855002 -6.549364 66.538590 4.919145 -4.649816 93.228209 2.921278 -4.322212 68.093919 -0.000002 -0.000001 -0.000000 1.542115 -5.696816 47.168197 2.898963 -4.313209 67.797332 2.788735 -4.266680 66.323917 -0.000001 -0.000001 0.000001 -36.673294 1.321939 -1.927106 35.230006 4.877072 0.254583 -0.404105 4.637225 -1.630151 -5.740233 -0.000001 0.000001 -0.000000 0.000002 0.000000 -0.147749 -1.006687 -1.146901 16.238478 -1.139846 -0.628827 -12.697374 29.607542 -11.025768 -8.212860 0.000005 -0.000003 0.000001 0.000003 0.000000 
-75.838409 194.884552 329.485168 10.718556 -66.078877 22.541760 9.788840 -1.228113 -10.796238 0.790374 0.896198 -3.070435 0.773972 0.890964 -3.071736 -10.759050 -1.700682 0.431450 -0.468295 -12.833527 1.950633 -0.000000 0.000000 -0.000000 -0.000000 0.000000 -0.000000 -0.000000 0.000000 -0.000000 3.543599 8.068175 -13.635274 3.812286 -0.828238 -56.276807 -0.000008 -5.661066 0.000007 35.829444 1.924430 -30.697046 0.362543 4.206369 -18.344204 0.474603 2.311785 -23.200244 0.474611 2.311788 -23.200226 -0.000000 -0.000001 0.000000 -3.469772 3.607319 7.883187 9.703619 22.223533 2.891174 -5.879058 9.699145 15.674842 0.000001 -0.000002 -0.000000 0.162354 3.429614 -10.498173 0.209648 1.554734 -15.358596 0.209650 1.554740 -15.358577 0.000000 0.000001 0.000003 0.689029 4.991717 -26.673265 0.865733 3.066788 -31.521439 0.865734 3.066779 -31.521443 -0.000001 0.000001 -0.000001 0.902509 5.377881 -30.995364 1.110591 3.433624 -35.838149 1.110590 3.433633 -35.838160 0.000000 -0.000003 0.000003 2.240347 10.965470 4.176982 -5.007751 3.942496 78.094416 0.000009 22.669338 -0.000001 1.854915 -5.350968 -2.705747 2.592849 -6.426547 62.973443 4.946638 -4.648193 93.567328 3.098018 -4.388968 70.420569 0.000000 -0.000001 -0.000001 -1.986164 -5.435664 -3.761566 8.766485 -20.697681 -3.062096 -5.504766 -5.510962 -14.718501 0.000004 0.000003 0.000002 2.057127 -6.108258 55.293595 5.419329 -4.594490 99.429400 3.163287 -4.411565 71.271255 0.000001 0.000001 -0.000000 2.855003 -6.549363 66.538590 4.919145 -4.649820 93.228203 2.921283 -4.322211 68.093926 0.000000 0.000000 -0.000002 1.542109 -5.696817 47.168194 2.898961 -4.313212 67.797332 2.788734 -4.266682 66.323917 0.000000 0.000000 -0.000001 -36.602232 0.221492 -0.800610 21.363816 4.517866 1.627351 -1.756750 0.787882 -3.658375 -5.429044 -0.000006 -0.000003 -0.000000 -0.000001 -0.000001 4.398891 -3.433491 -2.938881 11.700398 -0.668351 -0.264570 -13.215699 29.986443 -10.623471 -10.820108 -0.000014 0.000003 0.000000 0.000002 0.000000 
-82.473091 193.185654 336.877960 13.137267 -69.822790 24.195486 10.230975 -0.901356 -10.311505 0.934542 1.028687 -2.936258 0.918441 1.022458 -2.939928 -11.235155 -1.501598 0.161609 -1.558462 -11.169354 0.810410 -0.000000 0.000001 -0.000000 -0.000000 0.000001 -0.000000 -0.000000 0.000001 -0.000000 3.552553 7.949307 -13.825893 6.250162 -0.396353 -57.448339 -0.000018 -6.128588 -0.000001 31.347331 -0.343386 -32.656610 0.362544 4.206368 -18.344203 0.474606 2.311792 -23.200249 0.474611 2.311789 -23.200228 0.000001 -0.000001 -0.000001 -3.469772 3.607321 7.883190 9.703616 22.223530 2.891174 -5.879058 9.699138 15.674849 0.000000 -0.000000 0.000000 0.162357 3.429608 -10.498170 0.209648 1.554734 -15.358596 0.209649 1.554735 -15.358573 -0.000002 -0.000002 -0.000003 0.689031 4.991714 -26.673263 0.865732 3.066789 -31.521436 0.865735 3.066777 -31.521436 0.000000 0.000001 -0.000001 0.902508 5.377881 -30.995357 1.110596 3.433625 -35.838153 1.110591 3.433634 -35.838160 -0.000001 -0.000003 0.000002 2.232497 11.167914 3.792563 -3.745989 3.674462 77.184669 0.000001 27.206097 -0.000008 1.558702 -8.031844 -0.897310 2.592849 -6.426546 62.973443 4.946644 -4.648200 93.567328 3.098025 -4.388965 70.420575 -0.000002 -0.000001 -0.000003 -1.986163 -5.435663 -3.761566 8.766480 -20.697683 -3.062100 -5.504764 -5.510963 -14.718501 0.000001 0.000002 0.000001 2.057123 -6.108259 55.293592 5.419332 -4.594483 99.429393 3.163290 -4.411565 71.271248 0.000003 0.000001 0.000001 2.854999 -6.549364 66.538596 4.919147 -4.649819 93.228203 2.921279 -4.322212 68.093926 -0.000008 -0.000000 -0.000001 1.542109 -5.696815 47.168187 2.898962 -4.313211 67.797339 2.788733 -4.266684 66.323910 0.000000 0.000000 0.000000 -35.281322 0.028525 0.641671 9.117631 3.737006 2.465453 -3.766011 -0.477801 -6.132570 -4.760603 -0.000021 -0.000003 0.000001 -0.000003 -0.000001 8.175564 -5.602455 -4.459699 10.232984 -0.336910 -0.025654 -14.867430 29.991955 -9.779535 -12.767948 0.000011 0.000005 0.000000 -0.000001 -0.000000 
